<svg xmlns="http://www.w3.org/2000/svg" xmlns:xlink="http://www.w3.org/1999/xlink" width="529" zoomAndPan="magnify" viewBox="0 0 396.75 396.749985" height="529" preserveAspectRatio="xMidYMid meet" version="1.0"><defs><g/></defs><path fill="#ffffff" d="M 198.386719 177.59375 C 195.753906 177.59375 191.675781 174.597656 187.382812 174.707031 C 181.722656 174.777344 176.527344 177.992188 173.605469 183.082031 C 167.726562 193.300781 172.089844 208.398438 177.824219 216.703125 C 180.636719 220.746094 183.957031 225.296875 188.359375 225.152344 C 192.578125 224.972656 194.164062 222.40625 199.289062 222.40625 C 204.375 222.40625 205.816406 225.152344 210.289062 225.042969 C 214.832031 224.972656 217.71875 220.925781 220.496094 216.847656 C 223.707031 212.152344 225.042969 207.601562 225.113281 207.347656 C 225.007812 207.3125 216.277344 203.953125 216.167969 193.84375 C 216.097656 185.394531 223.058594 181.351562 223.382812 181.167969 C 219.414062 175.355469 213.320312 174.707031 211.191406 174.5625 C 205.636719 174.128906 200.984375 177.59375 198.386719 177.59375 Z M 207.765625 169.074219 C 210.109375 166.253906 211.660156 162.320312 211.226562 158.417969 C 207.871094 158.5625 203.832031 160.660156 201.414062 163.476562 C 199.25 165.96875 197.375 169.976562 197.878906 173.804688 C 201.597656 174.089844 205.417969 171.890625 207.765625 169.074219 " fill-opacity="1" fill-rule="nonzero"/><path fill="#ff3131" d="M 131.777344 177.496094 C 129.144531 177.496094 125.070312 174.503906 120.78125 174.609375 C 115.121094 174.683594 109.929688 177.890625 107.011719 182.972656 C 101.132812 193.175781 105.496094 208.246094 111.226562 216.535156 C 114.039062 220.574219 117.355469 225.117188 121.753906 224.972656 C 125.972656 224.792969 127.558594 222.230469 132.675781 222.230469 C 137.761719 222.230469 139.203125 224.972656 143.671875 224.863281 C 148.214844 224.792969 151.097656 220.753906 153.875 216.679688 C 157.082031 211.992188 158.417969 207.453125 158.488281 207.199219 C 158.378906 207.164062 149.65625 203.8125 149.546875 193.71875 C 149.476562 185.28125 156.433594 181.246094 156.757812 181.0625 C 152.792969 175.261719 146.699219 174.609375 144.574219 174.46875 C 139.023438 174.035156 134.371094 177.496094 131.777344 177.496094 Z M 141.148438 168.988281 C 143.492188 166.175781 145.042969 162.246094 144.609375 158.351562 C 141.257812 158.496094 137.21875 160.589844 134.804688 163.398438 C 132.640625 165.886719 130.765625 169.890625 131.269531 173.710938 C 134.984375 174 138.804688 171.800781 141.148438 168.988281 " fill-opacity="1" fill-rule="nonzero"/><g fill="#ffffff" fill-opacity="1"><g transform="translate(163.033908, 215.934641)"><g><path d="M 4.484375 0 L 4.484375 -32.625 L 8.28125 -32.625 L 8.28125 0 Z M 4.484375 0 "/></g></g></g><g fill="#ffffff" fill-opacity="1"><g transform="translate(175.774837, 215.934641)"><g/></g></g><g fill="#ffffff" fill-opacity="1"><g transform="translate(187.645546, 215.934641)"><g><path d="M 25.171875 -23.125 C 25.171875 -19.820312 24.039062 -17.28125 21.78125 -15.5 C 19.53125 -13.71875 16.3125 -12.828125 12.125 -12.828125 L 8.28125 -12.828125 L 8.28125 0 L 4.484375 0 L 4.484375 -32.625 L 12.9375 -32.625 C 21.09375 -32.625 25.171875 -29.457031 25.171875 -23.125 Z M 8.28125 -16.09375 L 11.6875 -16.09375 C 15.050781 -16.09375 17.484375 -16.632812 18.984375 -17.71875 C 20.492188 -18.800781 21.25 -20.539062 21.25 -22.9375 C 21.25 -25.09375 20.539062 -26.695312 19.125 -27.75 C 17.707031 -28.8125 15.503906 -29.34375 12.515625 -29.34375 L 8.28125 -29.34375 Z M 8.28125 -16.09375 "/></g></g></g><g fill="#ffffff" fill-opacity="1"><g transform="translate(215.15792, 215.934641)"><g><path d="M 7.40625 -24.453125 L 7.40625 -8.59375 C 7.40625 -6.59375 7.859375 -5.101562 8.765625 -4.125 C 9.671875 -3.144531 11.09375 -2.65625 13.03125 -2.65625 C 15.59375 -2.65625 17.460938 -3.351562 18.640625 -4.75 C 19.828125 -6.144531 20.421875 -8.429688 20.421875 -11.609375 L 20.421875 -24.453125 L 24.125 -24.453125 L 24.125 0 L 21.0625 0 L 20.53125 -3.28125 L 20.328125 -3.28125 C 19.566406 -2.070312 18.515625 -1.144531 17.171875 -0.5 C 15.828125 0.132812 14.289062 0.453125 12.5625 0.453125 C 9.582031 0.453125 7.351562 -0.253906 5.875 -1.671875 C 4.394531 -3.085938 3.65625 -5.347656 3.65625 -8.453125 L 3.65625 -24.453125 Z M 7.40625 -24.453125 "/></g></g></g><g fill="#ffffff" fill-opacity="1"><g transform="translate(243.205815, 215.934641)"><g><path d="M 13.703125 0.453125 C 10.160156 0.453125 7.414062 -0.632812 5.46875 -2.8125 C 3.53125 -5 2.5625 -8.085938 2.5625 -12.078125 C 2.5625 -16.160156 3.546875 -19.316406 5.515625 -21.546875 C 7.492188 -23.785156 10.304688 -24.90625 13.953125 -24.90625 C 15.117188 -24.90625 16.289062 -24.773438 17.46875 -24.515625 C 18.644531 -24.265625 19.566406 -23.96875 20.234375 -23.625 L 19.109375 -20.484375 C 18.285156 -20.816406 17.390625 -21.085938 16.421875 -21.296875 C 15.453125 -21.515625 14.597656 -21.625 13.859375 -21.625 C 8.890625 -21.625 6.40625 -18.457031 6.40625 -12.125 C 6.40625 -9.113281 7.007812 -6.804688 8.21875 -5.203125 C 9.4375 -3.597656 11.234375 -2.796875 13.609375 -2.796875 C 15.648438 -2.796875 17.742188 -3.234375 19.890625 -4.109375 L 19.890625 -0.828125 C 18.242188 0.0234375 16.179688 0.453125 13.703125 0.453125 Z M 13.703125 0.453125 "/></g></g></g></svg>